<svg xmlns="http://www.w3.org/2000/svg" width="21" height="21" viewBox="0 0 21 21">
    <path fill="#000" stroke="#000" stroke-width=".5" d="M10.255 1.003C5.092 1.136.982 5.361 1 10.515c0 3.389 1.81 6.52 4.75 8.214 2.939 1.695 6.561 1.695 9.5 0 2.94-1.694 4.75-4.825 4.75-8.214.009-2.563-1.022-5.02-2.858-6.812-1.836-1.792-4.32-2.766-6.887-2.7h0zM9.027 2.02C8.12 3.621 7.474 5.357 7.115 7.162H2.543C3.687 4.458 6.13 2.521 9.027 2.02h0zm2.946 0c2.897.5 5.34 2.438 6.484 5.142h-4.572c-.359-1.805-1.004-3.54-1.912-5.142h0zm-1.496.205c.381-.009.735.197.916.532.746 1.384 1.288 2.867 1.61 4.405H7.997c.322-1.538.864-3.021 1.61-4.405.173-.321.505-.524.87-.532h0zm-8.245 5.8h4.735c-.242 1.65-.242 3.329 0 4.98H2.232c-.49-1.624-.49-3.357 0-4.98h0zm5.609 0h5.319c.254 1.65.254 3.33 0 4.98H7.84c-.254-1.65-.254-3.33 0-4.98h0zm6.192 0h4.735c.49 1.623.49 3.356 0 4.98h-4.735c.242-1.651.242-3.33 0-4.98h0zm-11.49 5.842h4.572c.359 1.805 1.004 3.541 1.912 5.143-2.897-.5-5.34-2.438-6.484-5.143zm5.454 0h5.006c-.322 1.538-.864 3.022-1.61 4.406-.177.328-.52.533-.893.533s-.716-.205-.893-.533c-.746-1.384-1.288-2.868-1.61-4.406h0zm5.888 0h4.572c-1.144 2.705-3.587 4.642-6.484 5.143.908-1.602 1.553-3.338 1.912-5.143h0z"/>
</svg>